<?xml version="1.0" standalone="no"?><!DOCTYPE svg PUBLIC "-//W3C//DTD SVG 1.1//EN" "http://www.w3.org/Graphics/SVG/1.1/DTD/svg11.dtd"><svg t="1711179309999" class="icon" viewBox="0 0 1024 1024" version="1.1" xmlns="http://www.w3.org/2000/svg" p-id="1225" xmlns:xlink="http://www.w3.org/1999/xlink" width="200" height="200"><path d="M512 0c-148.798 0-272 123.202-272 272 0 16.802 13.198 30 30 30h484c16.802 0 30-13.198 30-30C784 123.202 660.798 0 512 0z" fill="#FD003A" p-id="1226"></path><path d="M784 272c0 16.802-13.198 30-30 30H512V0c148.798 0 272 123.202 272 272z" fill="#E50027" p-id="1227"></path><path d="M150 542c-82.842 0-150-67.158-150-150s67.158-150 150-150 150 67.158 150 150-67.158 150-150 150z" fill="#C85F03" p-id="1228"></path><path d="M150 482c-49.628 0-90-40.372-90-90s40.372-90 90-90 90 40.372 90 90-40.372 90-90 90zM874 542c-82.842 0-150-67.158-150-150s67.158-150 150-150 150 67.158 150 150-67.158 150-150 150z" fill="#994C0F" p-id="1229"></path><path d="M874 482c-49.628 0-90-40.372-90-90s40.372-90 90-90 90 40.372 90 90-40.372 90-90 90z" fill="#713708" p-id="1230"></path><path d="M904 632c0 215.402-176.598 392-392 392S120 847.402 120 632c0-139.2 73.198-260.998 183-330h418c109.802 69.002 183 190.8 183 330z" fill="#E4741B" p-id="1231"></path><path d="M904 632c0 215.402-176.598 392-392 392V302h209c109.802 69.002 183 190.8 183 330z" fill="#BF6015" p-id="1232"></path><path d="M390 512m-30 0a30 30 0 1 0 60 0 30 30 0 1 0-60 0Z" fill="#994C0F" p-id="1233"></path><path d="M634 512m-30 0a30 30 0 1 0 60 0 30 30 0 1 0-60 0Z" fill="#713708" p-id="1234"></path><path d="M512 542c-115.8 0-212 80.998-212 180s96.2 180 212 180 212-80.998 212-180-96.2-180-212-180z" fill="#C85F03" p-id="1235"></path><path d="M724 722c0 99.002-96.2 180-212 180V542c115.8 0 212 80.998 212 180z" fill="#994C0F" p-id="1236"></path><path d="M542 692v120c0 16.802-13.198 30-30 30s-30-13.198-30-30v-120c0-16.802 13.198-30 30-30s30 13.198 30 30z" fill="#994C0F" p-id="1237"></path><path d="M844 302c0 33-27 60-60 60H240c-33 0-60-27-60-60s27-60 60-60h544c33 0 60 27 60 60z" fill="#CCEFFF" p-id="1238"></path><path d="M844 302c0 33-27 60-60 60H512v-120h272c33 0 60 27 60 60z" fill="#ACE3FC" p-id="1239"></path><path d="M542 692v120c0 16.802-13.198 30-30 30v-180c16.802 0 30 13.198 30 30z" fill="#713708" p-id="1240"></path><path d="M512 542c-49.802 0-92 40.198-92 90s42.198 90 92 90 92-40.198 92-90-42.198-90-92-90z" fill="#994C0F" p-id="1241"></path><path d="M604 632c0 49.802-42.198 90-92 90v-180c49.802 0 92 40.198 92 90z" fill="#713708" p-id="1242"></path></svg>